<?xml version="1.0" encoding="UTF-8"?>
<svg id="Layer_2" data-name="Layer 2" xmlns="http://www.w3.org/2000/svg" viewBox="0 0 1089.41 285.22">
  <defs>
    <style>
      .cls-1 {
        fill: #0076bf;
      }

      .cls-2 {
        fill: #ff3f3f;
      }
    </style>
  </defs>
  <g id="Layer_1-2" data-name="Layer 1">
    <g>
      <g>
        <polygon class="cls-1" points="35.85 0 35.85 14.15 25.68 14.15 25.68 76 10.16 76 10.16 14.15 0 14.15 0 4.54 7.17 0 35.85 0"/>
        <polygon class="cls-1" points="63.84 32.5 55.56 32.5 55.56 0 40.04 0 40.04 76 55.56 76 55.56 45.6 63.84 45.6 63.84 76 79.35 76 79.35 0 63.84 0 63.84 32.5"/>
        <polygon class="cls-1" points="101.26 61.85 101.26 45.29 113.84 45.29 113.84 32.18 101.26 32.18 101.26 14.15 115.2 14.15 117.82 14.15 117.82 0 115.2 0 85.64 0 85.64 76 114.57 76 117.19 76 117.19 61.85 114.57 61.85 101.26 61.85"/>
      </g>
      <path class="cls-1" d="m146.83,235.86v-41.36c0-3.52-.99-6.67-2.97-9.46-1.86-2.62-4.8-4.12-8.8-4.54h-30.28v14.44h5.53c1.46,0,2.64.33,3.52.99.88.66,1.32,1.87,1.32,3.63v29.7c0,1.18-.22,2.02-.66,2.53-.44.52-1.32.77-2.64.77h-7.07v26.94h27.28c4.03-.93,7.13-2.5,9.27-4.72,3.66-3.81,5.5-10.12,5.5-18.92Z"/>
      <path class="cls-1" d="m114.71,132.02v34.54c0,1.47-.37,2.53-1.1,3.19-.74.66-1.69.99-2.86.99h-5.97v8.76h32.14c2.83-1.2,4.86-2.91,6.06-5.13,1.54-2.86,2.31-6.27,2.31-10.23v-43.78c0-5.86-1.58-10.56-4.73-14.08-3.16-3.52-7.89-5.28-14.19-5.28h-21.59v27.94h7.07c1.9,0,2.86,1.03,2.86,3.08Z"/>
      <polygon class="cls-1" points="103.78 170.74 95.79 170.74 95.79 128.94 103.78 128.94 103.78 101 64.11 101 64.11 179.5 103.78 179.5 103.78 170.74"/>
      <polygon class="cls-1" points="103.78 232.56 95.79 232.56 95.79 194.94 103.78 194.94 103.78 180.5 64.11 180.5 64.11 259.5 103.78 259.5 103.78 232.56"/>
      <rect class="cls-1" x="160.03" y="101" width="15.75" height="78.5"/>
      <rect class="cls-1" x="160.03" y="180.5" width="15.75" height="79"/>
      <polygon class="cls-1" points="192.81 230.8 192.81 180.5 176.78 180.5 176.78 259.5 219.61 259.5 224.93 230.8 192.81 230.8"/>
      <rect class="cls-1" x="176.78" y="101" width="16.03" height="78.5"/>
      <rect class="cls-1" x="284.77" y="101" width="32.56" height="78.5"/>
      <path class="cls-1" d="m317.33,235.86v-55.36h-32.56v48.54c0,1.18-.19,2.05-.55,2.64-.37.59-1.21.88-2.53.88h-5.08v26.94h25.95c4.03-.93,7.13-2.5,9.27-4.72,3.66-3.81,5.5-10.12,5.5-18.92Z"/>
      <path class="cls-1" d="m275.61,232.56h-5.14c-1.32,0-2.17-.29-2.53-.88-.37-.58-.55-1.46-.55-2.64v-48.54h-32.56v55.36c0,8.8,1.83,15.11,5.5,18.92,2.14,2.23,5.23,3.8,9.26,4.72h26.02v-26.94Z"/>
      <rect class="cls-1" x="234.83" y="101" width="32.56" height="78.5"/>
      <rect class="cls-1" x="330.53" y="101" width="17.08" height="78.5"/>
      <polygon class="cls-1" points="389.71 179.5 389.71 168.54 363.31 168.54 363.31 130.7 398.07 130.7 392.57 101 348.61 101 348.61 179.5 389.71 179.5"/>
      <rect class="cls-1" x="330.53" y="180.5" width="17.08" height="79"/>
      <polygon class="cls-1" points="363.31 230.8 363.31 196.04 389.71 196.04 389.71 180.5 348.61 180.5 348.61 259.5 391.44 259.5 396.75 230.8 363.31 230.8"/>
      <path class="cls-1" d="m449.61,218.04h18.42c4.4,0,8.06-.55,11-1.65,2.93-1.1,5.28-2.6,7.04-4.51,1.76-1.9,2.97-4.14,3.63-6.71.66-2.56.99-5.39.99-8.47v-16.2h-41.08v37.54Z"/>
      <polygon class="cls-1" points="448.61 218.04 448.61 180.5 409.07 180.5 409.07 259.5 440.75 259.5 440.75 218.04 448.61 218.04"/>
      <polygon class="cls-1" points="448.61 174.9 440.75 174.9 440.75 128.94 448.61 128.94 448.61 101 409.07 101 409.07 179.5 448.61 179.5 448.61 174.9"/>
      <path class="cls-1" d="m456.81,128.94c1.9,0,2.86,1.03,2.86,3.08v42.88h-10.06v4.6h41.08v-59.14c0-5.86-1.58-10.56-4.73-14.08-3.16-3.52-7.89-5.28-14.19-5.28h-22.16v27.94h7.2Z"/>
      <path class="cls-1" d="m581.66,205.28c2.42-2.93,3.63-6.16,3.63-9.68v-15.1h-40.68v46.67l9.8,32.32h32.97l-16.39-49.82c4.69,0,8.25-1.46,10.67-4.4Z"/>
      <path class="cls-1" d="m550.75,128.94c2.05,0,3.08,1.1,3.08,3.3v42.66h-9.22v4.6h40.68v-57.82c0-6.3-1.73-11.33-5.17-15.07-3.45-3.74-8.91-5.61-16.39-5.61h-19.12v27.94h6.14Z"/>
      <polygon class="cls-1" points="543.61 174.9 535.13 174.9 535.13 128.94 543.61 128.94 543.61 101 503.23 101 503.23 179.5 543.61 179.5 543.61 174.9"/>
      <polygon class="cls-1" points="539.31 209.68 543.61 223.88 543.61 180.5 503.23 180.5 503.23 259.5 535.13 259.5 535.13 209.68 539.31 209.68"/>
      <rect class="cls-1" x="615.61" y="180.5" width="15.22" height="79"/>
      <rect class="cls-1" x="615.61" y="101" width="15.22" height="78.5"/>
      <rect class="cls-1" x="598.93" y="180.5" width="15.68" height="79"/>
      <rect class="cls-1" x="598.93" y="101" width="15.68" height="78.5"/>
      <polygon class="cls-1" points="683.61 180.5 683.61 233.08 690.41 259.5 723.45 259.5 723.45 180.5 683.61 180.5"/>
      <polygon class="cls-1" points="723.45 179.5 723.45 101 690.67 101 690.67 165.02 683.61 137.27 683.61 179.5 723.45 179.5"/>
      <polygon class="cls-1" points="682.61 133.33 674.39 101 644.03 101 644.03 179.5 682.61 179.5 682.61 133.33"/>
      <polygon class="cls-1" points="682.61 229.2 682.61 180.5 644.03 180.5 644.03 259.5 673.51 259.5 673.51 193.84 682.61 229.2"/>
      <rect class="cls-1" x="769.61" y="180.5" width="16.54" height="79"/>
      <rect class="cls-1" x="753.59" y="180.5" width="15.02" height="79"/>
      <polygon class="cls-1" points="768.61 101 740.61 101 732.25 130.7 753.59 130.7 753.59 179.5 768.61 179.5 768.61 101"/>
      <polygon class="cls-1" points="786.15 179.5 786.15 130.7 807.49 130.7 799.57 101 769.61 101 769.61 179.5 786.15 179.5"/>
      <polygon class="cls-1" points="875.47 179.5 875.47 168.54 849.07 168.54 849.07 130.7 883.83 130.7 878.33 101 837.61 101 837.61 179.5 875.47 179.5"/>
      <rect class="cls-1" x="816.29" y="180.5" width="20.32" height="79"/>
      <rect class="cls-1" x="816.29" y="101" width="20.32" height="78.5"/>
      <polygon class="cls-1" points="849.07 230.8 849.07 196.04 875.47 196.04 875.47 180.5 837.61 180.5 837.61 259.5 877.19 259.5 882.51 230.8 849.07 230.8"/>
      <polygon class="cls-1" points="934.61 174.9 926.73 174.9 926.73 128.94 934.61 128.94 934.61 101 894.83 101 894.83 179.5 934.61 179.5 934.61 174.9"/>
      <path class="cls-1" d="m942.35,128.94c2.05,0,3.08,1.1,3.08,3.3v42.66h-9.82v4.6h41.28v-57.82c0-6.3-1.73-11.33-5.17-15.07-3.45-3.74-8.91-5.61-16.39-5.61h-19.72v27.94h6.74Z"/>
      <polygon class="cls-1" points="930.91 209.68 934.61 221.9 934.61 180.5 894.83 180.5 894.83 259.5 926.73 259.5 926.73 209.68 930.91 209.68"/>
      <path class="cls-1" d="m973.26,205.28c2.42-2.93,3.63-6.16,3.63-9.68v-15.1h-41.28v44.69l10.4,34.3h32.97l-16.39-49.82c4.69,0,8.25-1.46,10.67-4.4Z"/>
      <path class="cls-1" d="m995.26,106.61c-3.45,3.74-5.17,8.77-5.17,15.07v54.12c0,1.33.06,2.56.17,3.7h35.36v-12.08c-1.44-.04-2.55-.32-3.29-.86-.81-.58-1.21-1.68-1.21-3.3v-29.04c0-2.34,1.32-3.52,3.96-3.52h.54v-29.7h-13.96c-7.48,0-12.95,1.87-16.39,5.61Z"/>
      <polygon class="cls-1" points="1025.61 230.8 992.29 230.8 997.82 259.5 1025.61 259.5 1025.61 230.8"/>
      <polygon class="cls-1" points="1061.15 130.7 1055.65 101 1026.61 101 1026.61 130.7 1061.15 130.7"/>
      <path class="cls-1" d="m1061.81,183.72v52.58c0,8.8-1.8,15.04-5.39,18.7-2.07,2.11-5.04,3.61-8.93,4.5h-20.88v-28.7c2.49,0,3.74-1.1,3.74-3.3v-29.04c0-2.2-.44-3.52-1.32-3.96-.55-.27-1.35-.46-2.42-.57v-13.43h35.04l.02.26c.09.94.14,1.92.14,2.96Z"/>
      <path class="cls-1" d="m995.48,190.76c1.69,1.32,3.59,2.17,5.72,2.53,2.12.37,4.36.55,6.71.55h16.5c.43,0,.82.01,1.2.03v-13.37h-35.25c.23,1.84.62,3.43,1.16,4.76.95,2.35,2.27,4.18,3.96,5.5Z"/>
      <path class="cls-1" d="m1061.55,179.5h-34.94v-12.06h19.36c5.13,0,9.06,1.21,11.77,3.63,2.03,1.81,3.29,4.62,3.81,8.43Z"/>
      <rect class="cls-1" x="769.61" y="99.5" width="67" height="1"/>
      <rect class="cls-1" x="615.61" y="99.5" width="67" height="1"/>
      <rect class="cls-1" x="683.61" y="99.5" width="85" height="1"/>
      <rect class="cls-1" x="36.56" y="99.5" width="67.22" height="1"/>
      <rect class="cls-1" x="544.61" y="99.5" width="70" height="1"/>
      <rect class="cls-1" x="837.61" y="99.5" width="97" height="1"/>
      <rect class="cls-1" x="935.61" y="99.5" width="90" height="1"/>
      <rect class="cls-1" x="449.61" y="99.5" width="94" height="1"/>
      <rect class="cls-1" x="1026.61" y="99.5" width="62.8" height="1"/>
      <rect class="cls-1" x="104.78" y="99.5" width="71" height="1"/>
      <rect class="cls-1" x="348.61" y="99.5" width="100" height="1"/>
      <rect class="cls-1" x="176.78" y="99.5" width="98.83" height="1"/>
      <rect class="cls-1" x="276.61" y="99.5" width="71" height="1"/>
      <path class="cls-1" d="m330.53,260.5v-1h-27.97c-2.88.66-6.24,1-10.09,1h-15.86s71,0,71,0h0s-17.08,0-17.08,0Z"/>
      <polygon class="cls-1" points="753.59 260.5 753.59 259.5 723.45 259.5 723.45 260.5 690.67 260.5 690.41 259.5 683.61 259.5 683.61 260.5 768.61 260.5 768.61 260.5 753.59 260.5"/>
      <polygon class="cls-1" points="673.51 259.5 673.51 260.5 644.03 260.5 644.03 259.5 630.83 259.5 630.83 260.5 615.61 260.5 615.61 260.5 682.61 260.5 682.61 259.5 673.51 259.5"/>
      <polygon class="cls-1" points="926.73 259.5 926.73 260.5 894.83 260.5 894.83 259.5 877.19 259.5 877.01 260.5 837.61 260.5 837.61 260.5 934.61 260.5 934.61 259.5 926.73 259.5"/>
      <polygon class="cls-1" points="598.93 260.5 598.93 259.5 587.38 259.5 587.71 260.5 554.71 260.5 554.41 259.5 544.61 259.5 544.61 260.5 614.61 260.5 614.61 260.5 598.93 260.5"/>
      <polygon class="cls-1" points="816.29 260.5 816.29 259.5 786.15 259.5 786.15 260.5 769.61 260.5 769.61 260.5 836.61 260.5 836.61 260.5 816.29 260.5"/>
      <polygon class="cls-1" points="998.01 260.5 997.82 259.5 978.98 259.5 979.31 260.5 946.31 260.5 946.01 259.5 935.61 259.5 935.61 260.5 1025.61 260.5 1025.61 260.5 998.01 260.5"/>
      <path class="cls-1" d="m1089.41,259.5v1h-57c2.08,0,3.89-.34,5.43-1h51.57Z"/>
      <path class="cls-1" d="m160.03,260.5v-1h-27.97c-2.88.66-6.24,1-10.09,1h-17.19s71,0,71,0h0s-15.75,0-15.75,0Z"/>
      <polygon class="cls-1" points="64.11 260.5 64.11 259.5 36.56 259.5 36.56 260.5 103.78 260.5 103.78 260.5 64.11 260.5"/>
      <polygon class="cls-1" points="535.13 259.5 535.13 260.5 503.23 260.5 503.23 259.5 449.61 259.5 449.61 260.5 543.61 260.5 543.61 259.5 535.13 259.5"/>
      <polygon class="cls-1" points="440.75 259.5 440.75 260.5 409.07 260.5 409.07 259.5 391.44 259.5 391.25 260.5 348.61 260.5 348.61 260.5 448.61 260.5 448.61 259.5 440.75 259.5"/>
      <path class="cls-1" d="m259.69,260.5c-3.85,0-7.21-.34-10.1-1h-29.98l-.18,1h-42.65s98.83,0,98.83,0h0s-15.92,0-15.92,0Z"/>
      <rect class="cls-1" x="64.11" y="259.5" width="39.67" height="1"/>
      <path class="cls-1" d="m104.78,260.5h17.19c3.85,0,7.21-.34,10.09-1h-27.28v1Z"/>
      <polygon class="cls-1" points="176.78 260.5 219.43 260.5 219.61 259.5 176.78 259.5 176.78 260.5"/>
      <rect class="cls-1" x="160.03" y="259.5" width="15.75" height="1"/>
      <path class="cls-1" d="m249.59,259.5c2.88.66,6.24,1,10.1,1h15.92v-1h-26.02Z"/>
      <path class="cls-1" d="m276.61,260.5h15.86c3.85,0,7.21-.34,10.09-1h-25.95v1Z"/>
      <polygon class="cls-1" points="348.61 260.5 391.25 260.5 391.44 259.5 348.61 259.5 348.61 260.5"/>
      <rect class="cls-1" x="330.53" y="259.5" width="17.08" height="1"/>
      <rect class="cls-1" x="409.07" y="259.5" width="31.68" height="1"/>
      <polygon class="cls-1" points="554.71 260.5 587.71 260.5 587.38 259.5 554.41 259.5 554.71 260.5"/>
      <rect class="cls-1" x="503.23" y="259.5" width="31.9" height="1"/>
      <rect class="cls-1" x="598.93" y="259.5" width="15.68" height="1"/>
      <rect class="cls-1" x="615.61" y="259.5" width="15.22" height="1"/>
      <polygon class="cls-1" points="690.67 260.5 723.45 260.5 723.45 259.5 690.41 259.5 690.67 260.5"/>
      <rect class="cls-1" x="644.03" y="259.5" width="29.48" height="1"/>
      <rect class="cls-1" x="769.61" y="259.5" width="16.54" height="1"/>
      <rect class="cls-1" x="753.59" y="259.5" width="15.02" height="1"/>
      <rect class="cls-1" x="816.29" y="259.5" width="20.32" height="1"/>
      <polygon class="cls-1" points="837.61 260.5 877.01 260.5 877.19 259.5 837.61 259.5 837.61 260.5"/>
      <rect class="cls-1" x="894.83" y="259.5" width="31.9" height="1"/>
      <polygon class="cls-1" points="946.31 260.5 979.31 260.5 978.98 259.5 946.01 259.5 946.31 260.5"/>
      <path class="cls-1" d="m1047.49,259.5c-2.87.66-6.23,1-10.1,1h-10.78v-1h20.88Z"/>
      <polygon class="cls-1" points="997.82 259.5 998.01 260.5 1025.61 260.5 1025.61 259.5 997.82 259.5"/>
      <rect class="cls-1" x="36.56" y="179.5" width="27.55" height="1"/>
      <polygon class="cls-1" points="1089.41 179.5 1089.41 180.5 1061.65 180.5 1061.55 179.5 1089.41 179.5"/>
      <rect class="cls-1" x="103.78" y="88.11" width="1" height="11.39"/>
      <rect class="cls-1" x="103.78" y="100.5" width="1" height=".5"/>
      <rect class="cls-1" x="103.78" y="260.5" width="1" height="24.72"/>
      <rect class="cls-1" x="103.78" y="99.5" width="1" height="1"/>
      <rect class="cls-2" x="103.78" y="260.5" width="1" height="0"/>
      <rect class="cls-1" x="175.78" y="100.5" width="1" height=".5"/>
      <rect class="cls-1" x="175.78" y="87.64" width="1" height="11.86"/>
      <rect class="cls-1" x="175.78" y="260.5" width="1" height="24.25"/>
      <rect class="cls-1" x="175.78" y="99.5" width="1" height="1"/>
      <rect class="cls-1" x="175.78" y="260.5" width="1" height="0"/>
      <rect class="cls-1" x="175.78" y="259.5" width="1" height="1"/>
      <rect class="cls-1" x="275.61" y="83.9" width="1" height="15.6"/>
      <rect class="cls-1" x="275.61" y="260.5" width="1" height="20.5"/>
      <rect class="cls-1" x="275.61" y="99.5" width="1" height="1"/>
      <rect class="cls-2" x="275.61" y="260.5" width="1" height="0"/>
      <rect class="cls-1" x="275.61" y="259.5" width="1" height="1"/>
      <rect class="cls-1" x="347.61" y="100.5" width="1" height=".5"/>
      <rect class="cls-1" x="347.61" y="84.37" width="1" height="15.13"/>
      <rect class="cls-1" x="347.61" y="260.5" width="1" height="20.97"/>
      <rect class="cls-1" x="347.61" y="99.5" width="1" height="1"/>
      <rect class="cls-1" x="347.61" y="260.5" width="1" height="0"/>
      <rect class="cls-1" x="347.61" y="259.5" width="1" height="1"/>
      <rect class="cls-1" x="448.61" y="100.5" width="1" height=".5"/>
      <rect class="cls-1" x="448.61" y="84.84" width="1" height="14.67"/>
      <rect class="cls-1" x="448.61" y="260.5" width="1" height="21.44"/>
      <rect class="cls-1" x="448.61" y="99.5" width="1" height="1"/>
      <rect class="cls-1" x="448.61" y="259.5" width="1" height="1"/>
      <rect class="cls-1" x="543.61" y="85.3" width="1" height="14.2"/>
      <rect class="cls-1" x="543.61" y="100.5" width="1" height=".5"/>
      <rect class="cls-1" x="543.61" y="260.5" width="1" height="21.91"/>
      <rect class="cls-1" x="543.61" y="99.5" width="1" height="1"/>
      <rect class="cls-1" x="543.61" y="259.5" width="1" height="1"/>
      <rect class="cls-1" x="614.61" y="100.5" width="1" height=".5"/>
      <rect class="cls-1" x="614.61" y="85.77" width="1" height="13.73"/>
      <rect class="cls-1" x="614.61" y="260.5" width="1" height="22.38"/>
      <rect class="cls-1" x="614.61" y="99.5" width="1" height="1"/>
      <rect class="cls-2" x="614.61" y="260.5" width="1" height="0"/>
      <rect class="cls-2" x="614.61" y="259.5" width="1" height="1"/>
      <rect class="cls-1" x="682.61" y="86.24" width="1" height="13.26"/>
      <rect class="cls-1" x="682.61" y="260.5" width="1" height="22.85"/>
      <rect class="cls-1" x="682.61" y="99.5" width="1" height="1"/>
      <rect class="cls-1" x="682.61" y="259.5" width="1" height="1"/>
      <rect class="cls-2" x="768.61" y="100.5" width="1" height=".5"/>
      <rect class="cls-1" x="768.61" y="83.43" width="1" height="16.07"/>
      <rect class="cls-1" x="768.61" y="260.5" width="1" height="20.04"/>
      <rect class="cls-1" x="768.61" y="99.5" width="1" height="1"/>
      <rect class="cls-1" x="768.61" y="260.5" width="1" height="0"/>
      <rect class="cls-1" x="768.61" y="259.5" width="1" height="1"/>
      <rect class="cls-2" x="836.61" y="100.5" width="1" height=".5"/>
      <rect class="cls-1" x="836.61" y="82.96" width="1" height="16.54"/>
      <rect class="cls-1" x="836.61" y="260.5" width="1" height="19.57"/>
      <rect class="cls-1" x="836.61" y="99.5" width="1" height="1"/>
      <rect class="cls-1" x="836.61" y="260.5" width="1" height="0"/>
      <rect class="cls-1" x="836.61" y="259.5" width="1" height="1"/>
      <rect class="cls-1" x="934.61" y="100.5" width="1" height=".5"/>
      <rect class="cls-1" x="934.61" y="86.71" width="1" height="12.79"/>
      <rect class="cls-1" x="934.61" y="260.5" width="1" height="23.31"/>
      <rect class="cls-1" x="934.61" y="99.5" width="1" height="1"/>
      <rect class="cls-1" x="934.61" y="259.5" width="1" height="1"/>
      <rect class="cls-1" x="1025.61" y="100.5" width="1" height=".5"/>
      <rect class="cls-1" x="1025.61" y="260.5" width="1" height="23.78"/>
      <rect class="cls-1" x="1025.61" y="87.18" width="1" height="12.33"/>
      <rect class="cls-1" x="1025.61" y="99.5" width="1" height="1"/>
      <rect class="cls-1" x="1025.61" y="260.5" width="1" height="0"/>
      <rect class="cls-1" x="1025.61" y="259.5" width="1" height="1"/>
    </g>
  </g>
</svg>